<svg xmlns="http://www.w3.org/2000/svg" data-name="Layer 1" viewBox="0 0 512 512"><text font-family="Dosis-ExtraBold,Dosis" font-size="75" font-weight="800" letter-spacing=".08em" transform="matrix(.99 0 0 1 104.34 156.57)">SP<tspan x="93.9" y="0" letter-spacing=".07em">E</tspan><tspan x="139.42" y="0" letter-spacing=".07em">CIAL</tspan></text><text font-family="Dosis-ExtraBold,Dosis" font-size="75" font-weight="800" letter-spacing=".07em" transform="matrix(.99 0 0 1 139.96 409.57)">OFFER</text><polygon fill="#672e79" points="504.5 321.5 472.5 291.5 463.99 282.58 423.17 337.39 504.5 321.5"/><polygon fill="#672e79" points="504.5 186.5 472.5 216.5 457.55 230.65 417.76 184.5 456.28 179.42 504.5 186.5"/><polygon fill="#672e79" points="7.5 186.5 39.5 216.5 66.17 243.1 99.86 191.94 69.6 164.17 7.5 186.5"/><polygon fill="#672e79" points="7.5 321.5 39.5 291.5 54.32 278.66 92.69 342.62 7.5 321.5"/><path fill="#fed947" d="M500.26,260.24,424,336.5l-120,120-43.78,43.79a6,6,0,0,1-8.48,0L208,456.5,88,336.5,11.74,260.24a6,6,0,0,1,0-8.48L62,201.5l120-120,69.78-69.79a6,6,0,0,1,8.48,0L330,81.5l120,120,50.25,50.26A6,6,0,0,1,500.26,260.24Z"/><polygon fill="#f8be32" points="450.01 201.5 61.99 201.5 181.98 81.5 330.02 81.5 450.01 201.5"/><polygon fill="#803391" points="504.5 186.5 7.5 186.5 67.5 66.5 444.5 66.5 504.5 186.5"/><polygon fill="#f8be32" points="424.01 336.5 304.02 456.5 207.98 456.5 87.99 336.5 424.01 336.5"/><polygon fill="#803391" points="504.5 321.5 7.5 321.5 67.5 441.5 444.5 441.5 504.5 321.5"/><path fill="#fff" d="M130.74 141.87c0-9.08-23.64-7.5-23.64-25.05 0-11.25 9.77-15.52 19.09-15.52 4 0 14.85.75 14.85 6.6 0 2-1.34 6.15-4.63 6.15-2.68 0-4.1-2.85-10.22-2.85-5.29 0-7.46 2.17-7.46 4.5 0 7.5 23.65 6.07 23.65 25 0 10.8-7.83 16.65-18.65 16.65-9.77 0-18-4.8-18-9.75 0-2.55 2.24-6.3 5.08-6.3 3.5 0 5.74 5.55 12.68 5.55C126.94 146.82 130.74 145.47 130.74 141.87zM153.72 105.27c0-1.87 1.72-3.52 4.33-3.52h15.44c9.85 0 17.61 4.65 17.61 17.25v.37c0 12.6-8.06 17.4-18.36 17.4h-7.38V153c0 2.4-2.91 3.6-5.82 3.6s-5.82-1.2-5.82-3.6zM165.36 112v15.82h7.38c4.18 0 6.72-2.4 6.72-7.5v-.82c0-5.1-2.54-7.5-6.72-7.5zM213.4 124.62h11.19c2.24 0 3.51 2.17 3.51 4.57 0 2-1 4.43-3.51 4.43H213.4v12.75h20c2.24 0 3.51 2.4 3.51 5.17 0 2.4-1 5-3.51 5H206.84c-2.54 0-5.08-1.2-5.08-3.6V105.35c0-2.4 2.54-3.6 5.08-3.6h26.55c2.47 0 3.51 2.62 3.51 5 0 2.78-1.27 5.18-3.51 5.18h-20zM264.8 112c-4.25 0-6.71 2.4-6.71 7.5v19.87c0 5.1 2.46 7.5 6.79 7.5 6 0 6.34-4.58 6.56-7.5s2.76-3.53 5.75-3.53c4 0 5.89 1.05 5.89 5.55 0 10-8.06 15.68-18.73 15.68-9.77 0-17.9-4.8-17.9-17.7V119.45c0-12.9 8.13-17.7 17.9-17.7 10.67 0 18.73 5.4 18.73 14.92 0 4.5-1.87 5.55-5.82 5.55-3.13 0-5.67-.82-5.82-3.52C271.37 116.75 271.14 112 264.8 112zM294.57 105.27c0-2.47 2.91-3.52 5.82-3.52s5.82 1 5.82 3.52V153c0 2.4-2.91 3.6-5.82 3.6s-5.82-1.2-5.82-3.6zM316.13 151.77a3.57 3.57 0 0 1 .15-.83l13.87-45.74c.82-2.63 4.18-3.9 7.61-3.9s6.79 1.27 7.61 3.9l13.95 45.74a3.57 3.57 0 0 1 .15.83c0 2.77-4.25 4.8-7.46 4.8-1.86 0-3.36-.6-3.8-2.18L345.67 145H329.93l-2.54 9.37c-.44 1.58-1.94 2.18-3.8 2.18C320.38 156.57 316.13 154.54 316.13 151.77zM343.21 136l-5.45-20.1L332.32 136zM374.47 156.57c-2.54 0-5.08-1.2-5.08-3.6v-47.7c0-2.47 2.91-3.52 5.82-3.52s5.82 1 5.82 3.52v41.1h17c2.24 0 3.36 2.55 3.36 5.1s-1.12 5.1-3.36 5.1zM143.39 392.32V372.45c0-12.9 8-17.7 18.28-17.7s18.35 4.8 18.35 17.7v19.87c0 12.9-8.06 17.7-18.35 17.7S143.39 405.22 143.39 392.32zm25-19.87c0-5.18-2.54-7.5-6.71-7.5s-6.64 2.32-6.64 7.5v19.87c0 5.17 2.46 7.5 6.64 7.5s6.71-2.33 6.71-7.5zM193.07 358.35c0-2.4 2.54-3.6 5.08-3.6H224c2.46 0 3.51 2.62 3.51 5 0 2.78-1.27 5.18-3.51 5.18H204.71v12.67H216c2.23 0 3.5 2.17 3.5 4.57 0 2-1 4.43-3.5 4.43H204.71V406c0 2.4-2.91 3.6-5.82 3.6s-5.82-1.2-5.82-3.6zM237.09 358.35c0-2.4 2.53-3.6 5.07-3.6h25.89c2.46 0 3.5 2.62 3.5 5 0 2.78-1.26 5.18-3.5 5.18H248.73v12.67H260c2.24 0 3.51 2.17 3.51 4.57 0 2-1.05 4.43-3.51 4.43H248.73V406c0 2.4-2.91 3.6-5.82 3.6s-5.82-1.2-5.82-3.6zM292.74 377.62h11.19c2.24 0 3.51 2.17 3.51 4.57 0 2-1.05 4.43-3.51 4.43H292.74v12.75h20c2.24 0 3.51 2.4 3.51 5.17 0 2.4-1 5-3.51 5H286.18c-2.54 0-5.08-1.2-5.08-3.6V358.35c0-2.4 2.54-3.6 5.08-3.6h26.55c2.47 0 3.51 2.62 3.51 5 0 2.78-1.27 5.18-3.51 5.18h-20zM326.91 358.27a3.48 3.48 0 0 1 3.58-3.52h15.44c10.22 0 18.35 3.82 18.35 16 0 8.41-3.8 13.21-9 15.23l9.1 16.57a2.47 2.47 0 0 1 .37 1.35c0 2.93-3.88 6.08-7.31 6.08a4 4 0 0 1-3.73-2.18l-10.22-19.95h-4.92V406c0 2.4-2.91 3.6-5.82 3.6s-5.82-1.2-5.82-3.6zM338.55 365v13.94h7.38c4.18 0 6.72-1.72 6.72-7s-2.54-7-6.72-7z"/><path fill="#e4222e" d="M150.14 221l9.47 19.19a2 2 0 0 0 1.54 1.12l21.19 3.08a2.05 2.05 0 0 1 1.13 3.5l-15.32 14.94a2 2 0 0 0-.59 1.82l3.61 21.09a2.05 2.05 0 0 1-3 2.17l-18.95-10a2 2 0 0 0-1.91 0l-18.94 10a2.06 2.06 0 0 1-3-2.17L129 264.65a2.08 2.08 0 0 0-.59-1.82l-15.33-14.94a2.05 2.05 0 0 1 1.14-3.5l21.18-3.08a2 2 0 0 0 1.55-1.12L146.46 221A2 2 0 0 1 150.14 221zM257.84 221l9.47 19.19a2 2 0 0 0 1.55 1.12L290 244.39a2.06 2.06 0 0 1 1.14 3.5l-15.33 14.94a2 2 0 0 0-.59 1.82l3.62 21.09a2.06 2.06 0 0 1-3 2.17L257 278a2 2 0 0 0-1.9 0l-19 10a2.06 2.06 0 0 1-3-2.17l3.62-21.09a2 2 0 0 0-.59-1.82l-15.33-14.94a2.06 2.06 0 0 1 1.14-3.5l21.18-3.08a2 2 0 0 0 1.55-1.12L254.16 221A2 2 0 0 1 257.84 221zM365.54 221L375 240.19a2 2 0 0 0 1.55 1.12l21.18 3.08a2.05 2.05 0 0 1 1.14 3.5l-15.33 14.94a2.08 2.08 0 0 0-.59 1.82l3.62 21.09a2.06 2.06 0 0 1-3 2.17l-18.94-10a2 2 0 0 0-1.91 0l-18.95 10a2.05 2.05 0 0 1-3-2.17l3.61-21.09a2 2 0 0 0-.59-1.82l-15.32-14.94a2.05 2.05 0 0 1 1.13-3.5l21.19-3.08a2 2 0 0 0 1.54-1.12L361.86 221A2 2 0 0 1 365.54 221z"/></svg>